<?xml version="1.0" standalone="no"?>
<!DOCTYPE svg PUBLIC "-//W3C//DTD SVG 20010904//EN"
 "http://www.w3.org/TR/2001/REC-SVG-20010904/DTD/svg10.dtd">
<svg version="1.0" xmlns="http://www.w3.org/2000/svg"
 width="1024.000000pt" height="1024.000000pt" viewBox="0 0 1024.000000 1024.000000"
 preserveAspectRatio="xMidYMid meet">
<metadata>
Created by potrace 1.14, written by Peter Selinger 2001-2017
</metadata>
<g transform="translate(0.000000,1024.000000) scale(0.100000,-0.100000)"
fill="#000000" stroke="none">
<path d="M5167 9399 c-104 -13 -284 -60 -398 -105 -112 -43 -905 -428 -1001
-485 -114 -67 -221 -154 -263 -213 -37 -51 -43 -55 -81 -56 -33 0 -46 6 -72
33 -18 19 -41 56 -51 83 -11 27 -23 49 -27 49 -14 0 -54 -66 -65 -109 -17 -62
-6 -153 25 -215 15 -29 26 -54 24 -55 -2 -2 -48 -26 -103 -55 -164 -87 -263
-158 -375 -270 -88 -88 -114 -121 -152 -196 -65 -125 -88 -216 -88 -338 0
-151 32 -252 109 -347 52 -64 90 -97 142 -122 39 -19 49 -30 59 -63 27 -89
103 -180 176 -211 39 -16 38 -14 22 -49 -23 -51 -116 -72 -176 -41 -61 32
-114 113 -132 203 -6 29 -16 51 -21 48 -19 -12 -41 -119 -36 -174 9 -99 43
-168 116 -242 89 -89 148 -112 286 -113 55 -1 114 3 132 7 l32 8 3 -213 c3
-186 5 -217 22 -248 26 -47 228 -262 288 -306 l48 -36 0 -77 c0 -43 5 -113 11
-157 l10 -79 -61 -170 c-34 -94 -64 -191 -67 -216 -9 -76 20 -151 88 -223 49
-52 77 -71 188 -126 l131 -64 -6 -71 c-8 -94 11 -162 75 -257 l49 -73 -106 -6
c-187 -11 -310 -66 -437 -194 -68 -68 -100 -115 -211 -300 -198 -330 -373
-642 -512 -910 -68 -132 -130 -246 -136 -253 -9 -9 -17 26 -35 155 -12 93 -42
314 -67 493 -78 565 -93 675 -150 1110 -30 234 -61 470 -69 525 -8 55 -28 201
-45 325 -17 124 -40 262 -50 307 -60 258 -268 474 -518 538 -53 13 -125 15
-506 13 l-444 -3 -39 -31 c-21 -17 -47 -46 -58 -65 -19 -33 -19 -62 -20 -2340
l0 -2307 30 -44 c18 -25 49 -52 75 -66 l44 -22 4338 0 c3621 0 4344 2 4371 14
42 17 93 76 107 123 8 27 10 493 8 1599 l-3 1561 -29 37 c-42 56 -103 80 -188
74 -53 -4 -77 -11 -107 -33 -47 -32 -38 -34 -220 49 -75 35 -202 89 -284 122
l-147 59 -16 55 c-24 81 -47 121 -99 169 -39 36 -115 78 -187 104 -16 6 -16 8
0 39 19 38 27 146 13 168 -8 12 -12 12 -29 -3 -10 -9 -32 -22 -49 -27 -64 -23
-139 40 -131 108 3 25 8 28 56 33 67 9 153 51 188 92 45 53 90 170 77 203 -3
9 -18 3 -53 -22 -89 -64 -153 -54 -191 29 -15 35 -19 66 -19 187 l0 145 64 57
c79 71 135 153 175 258 58 149 63 283 16 393 l-16 39 -25 -51 c-33 -65 -110
-134 -168 -151 -38 -10 -126 -7 -126 6 0 2 15 32 34 66 48 88 76 187 83 294
18 269 -88 502 -306 675 l-44 35 69 -4 c61 -3 76 0 124 25 70 37 111 100 118
178 2 30 2 66 -2 80 l-6 25 -31 -35 c-62 -70 -149 -101 -205 -72 -72 37 -106
106 -168 342 -55 210 -73 262 -126 367 -185 369 -474 590 -865 663 -48 9 -116
15 -151 13 -35 -2 -64 1 -64 5 0 5 23 32 50 61 59 62 194 136 284 157 31 7 56
15 56 19 0 13 -76 31 -155 37 -189 13 -369 -79 -444 -226 l-22 -42 -92 65
c-178 123 -366 197 -613 241 -109 20 -352 27 -457 14z m398 -244 c75 -21 178
-71 202 -98 18 -20 17 -20 -7 -14 -119 31 -207 41 -380 41 -249 0 -320 -13
-625 -120 -204 -72 -364 -151 -540 -269 -267 -179 -418 -245 -580 -252 -115
-6 -172 6 -212 43 l-28 26 25 -7 c14 -4 62 -10 107 -12 107 -6 144 6 313 108
177 105 698 363 920 454 107 44 296 98 405 115 89 13 328 4 400 -15z m-1235
-684 c-8 -5 -37 -12 -63 -16 -27 -3 -99 -21 -160 -39 -378 -112 -799 -346
-1034 -574 -167 -162 -262 -315 -286 -457 -14 -87 -23 -82 -33 18 -17 173 80
377 243 510 210 171 720 445 953 512 69 20 147 40 175 44 67 12 224 13 205 2z
m164 -1224 c92 -122 193 -199 366 -274 41 -18 67 -33 58 -33 -10 0 -18 -4 -18
-10 0 -5 -7 -10 -16 -10 -12 0 -15 -7 -12 -30 5 -34 5 -34 -25 -19 -21 10 -22
10 -2 -6 19 -15 149 -58 266 -88 91 -23 108 -36 153 -115 99 -174 266 -363
402 -452 39 -26 110 -65 157 -88 178 -87 243 -197 267 -455 19 -210 -35 -528
-121 -713 -10 -22 -19 -43 -19 -47 0 -3 -11 -23 -25 -43 -16 -24 -22 -41 -16
-47 5 -5 7 -16 4 -24 -5 -12 -7 -12 -14 -1 -14 20 -31 -11 -25 -44 3 -16 -1
-31 -10 -39 -19 -15 -50 -74 -35 -65 7 5 11 -3 11 -18 0 -19 5 -26 20 -26 13
0 20 7 20 20 0 28 17 25 22 -4 4 -19 -4 -33 -28 -57 -19 -19 -34 -43 -34 -56
0 -16 -6 -23 -20 -23 -13 0 -20 -7 -20 -19 0 -10 -6 -23 -13 -29 -19 -16 -21
-72 -2 -72 8 0 15 -7 15 -15 0 -21 -41 -75 -56 -75 -13 0 -24 -22 -24 -47 0
-14 -13 -32 -96 -126 -13 -15 -24 -32 -24 -38 0 -13 -296 -310 -333 -334 -27
-17 -28 -17 -50 3 -51 48 -118 68 -487 148 -140 30 -298 65 -350 79 -52 13
-105 27 -117 30 -20 5 -23 12 -23 59 l0 53 92 7 c50 3 191 6 313 6 235 0 273
-6 336 -51 20 -14 38 -19 54 -15 32 8 31 14 -5 64 -46 64 -97 87 -230 106
-122 17 -507 22 -545 7 -11 -5 45 -7 125 -5 l145 3 -145 -15 c-80 -8 -158 -12
-175 -9 -22 4 -26 2 -15 -5 8 -5 11 -10 5 -10 -21 1 -47 29 -41 45 3 9 2 13
-4 10 -18 -11 -50 15 -50 41 0 14 10 74 21 134 l22 110 36 9 c95 26 262 61
285 61 14 0 43 7 65 16 51 20 66 55 58 134 -8 68 -50 170 -62 149 -5 -7 -4
-14 1 -16 12 -4 6 -60 -6 -68 -4 -3 -34 5 -66 16 -90 31 -169 29 -299 -10
-102 -31 -117 -33 -205 -27 -52 3 -108 9 -123 12 -28 7 -29 6 -24 -30 3 -20 2
-36 -2 -36 -3 0 -23 11 -43 25 -61 41 -64 54 -29 153 41 118 134 445 178 625
25 100 40 147 50 147 13 0 12 3 -45 106 -16 30 -149 151 -187 171 -24 13 -51
15 -137 10 -85 -4 -111 -3 -122 8 -11 11 -15 67 -20 242 -3 125 -10 336 -16
468 -6 132 -10 261 -10 286 l0 46 73 5 c42 3 111 19 167 37 52 18 114 38 137
45 l42 14 42 -71 c53 -90 173 -215 255 -267 35 -22 66 -40 70 -40 3 0 -31 35
-76 77 -45 42 -101 104 -125 137 -47 67 -95 157 -95 179 0 8 19 20 43 27 23 7
83 30 132 51 50 21 95 39 101 39 6 0 31 -33 56 -72 102 -160 260 -274 460
-332 103 -29 193 -43 184 -27 -4 6 -13 11 -20 11 -23 0 -190 87 -241 125 -70
52 -130 111 -180 175 -50 65 -105 160 -105 182 0 9 15 25 33 37 l32 21 15 -22
c8 -13 41 -58 74 -101z m2222 -1147 c23 0 23 -1 17 -83 -7 -103 12 -178 67
-258 56 -82 64 -119 40 -190 -24 -70 -25 -110 -5 -150 30 -57 77 -59 177 -6
183 95 256 318 146 443 -53 61 -121 81 -163 50 -14 -10 -25 -11 -38 -5 -16 9
-15 13 13 49 95 120 277 32 334 -160 57 -191 -39 -444 -213 -562 -25 -18 -48
-34 -51 -37 -3 -3 -12 -8 -20 -9 -102 -24 -152 -40 -140 -44 10 -4 7 -7 -8 -7
-15 -1 -21 3 -16 11 4 6 3 8 -3 5 -6 -4 -29 3 -53 14 -35 17 -46 31 -70 83
-32 70 -41 113 -70 351 -12 94 -28 201 -36 238 -17 83 -18 186 -2 239 11 37
14 39 41 34 16 -3 40 -6 53 -6z m-4964 -552 c93 -47 157 -112 204 -212 33 -69
38 -93 74 -362 21 -159 50 -372 64 -474 33 -237 47 -342 91 -685 20 -154 65
-491 100 -750 35 -258 66 -495 70 -525 3 -30 17 -138 30 -240 13 -102 33 -257
45 -345 50 -400 71 -562 76 -592 l6 -33 -114 0 c-139 0 -208 8 -208 25 0 8 9
10 27 7 25 -5 26 -4 19 29 -4 19 -9 61 -12 94 -3 33 -9 76 -14 95 -4 19 -11
71 -15 115 -3 44 -10 100 -15 125 -5 25 -15 91 -21 148 -12 98 -28 127 -28 52
-1 -82 12 -255 19 -260 5 -3 5 -21 1 -40 -6 -29 -9 -18 -20 70 -7 58 -14 116
-16 130 -2 14 -11 84 -20 155 -9 72 -22 171 -30 220 -8 50 -35 241 -59 425
-25 184 -61 452 -81 595 -35 247 -75 547 -130 970 -28 209 -65 473 -97 690
-11 77 -21 150 -22 162 0 12 -3 19 -5 17 -3 -2 -15 20 -27 50 -31 76 -71 132
-147 202 -112 106 -172 124 -399 124 l-138 0 0 25 0 25 183 3 c100 2 261 3
358 3 l175 -1 76 -37z m6688 -1036 l160 -157 0 -47 c0 -26 -5 -50 -10 -53 -6
-4 -8 -10 -5 -15 9 -15 -24 -235 -65 -435 -86 -421 -238 -834 -508 -1380 -123
-249 -289 -562 -303 -571 -24 -14 -162 113 -312 286 -50 58 -136 155 -190 217
-113 129 -113 106 1 228 146 156 224 254 355 447 128 188 327 558 418 777 99
238 204 570 240 763 20 107 23 116 40 107 10 -5 90 -80 179 -167z m-2560 -22
c0 -5 -4 -10 -10 -10 -5 0 -10 5 -10 10 0 6 5 10 10 10 6 0 10 -4 10 -10z
m-1287 -287 c-7 -2 -19 -2 -25 0 -7 3 -2 5 12 5 14 0 19 -2 13 -5z m2527 -41
c0 -20 47 -179 162 -547 54 -176 107 -345 115 -376 l17 -57 -74 -103 c-135
-190 -193 -263 -306 -381 -133 -140 -158 -184 -149 -260 l7 -53 -74 -51 c-40
-29 -85 -64 -100 -79 -58 -57 -60 -166 -7 -331 16 -50 29 -94 29 -98 0 -10
-68 -7 -95 6 -28 13 -61 75 -116 218 -47 125 -82 182 -189 310 -52 63 -122
153 -155 199 -33 46 -124 172 -202 280 -78 108 -140 197 -139 198 1 1 34 4 74
6 l72 4 21 -33 c11 -19 28 -40 38 -47 25 -18 96 -115 190 -259 92 -142 100
-147 201 -135 44 5 130 40 130 53 0 3 -7 18 -16 35 -8 16 -12 39 -9 50 6 18
12 20 59 14 49 -6 53 -5 84 26 108 111 262 488 322 789 12 58 25 164 30 235 9
136 38 399 46 425 5 12 8 12 20 -4 8 -11 14 -26 14 -34z m-2585 28 c8 -13 -5
-13 -25 0 -13 8 -13 10 2 10 9 0 20 -4 23 -10z m68 -7 c-7 -2 -19 -2 -25 0 -7
3 -2 5 12 5 14 0 19 -2 13 -5z m-356 -9 c-3 -3 -12 -4 -19 -1 -8 3 -5 6 6 6
11 1 17 -2 13 -5z m4680 -228 c43 -28 130 -88 194 -135 l116 -85 6 -171 c10
-258 9 -385 -4 -385 -6 0 -56 28 -112 61 -55 34 -182 104 -281 157 -100 52
-182 96 -184 97 -1 1 15 66 38 145 22 78 49 192 61 253 11 62 23 120 26 130 5
20 -10 28 140 -67z m-4760 -126 c115 -37 243 -66 643 -146 144 -29 200 -44
200 -54 0 -4 -11 -15 -23 -23 -24 -15 -24 -17 -11 -79 18 -84 17 -129 -2 -156
l-16 -23 -37 37 c-20 20 -54 45 -76 55 -61 27 -261 75 -650 156 -81 16 -176
10 -244 -17 -44 -17 -44 -17 -22 -30 71 -37 425 -144 669 -200 70 -17 102 -29
128 -52 27 -24 31 -32 21 -43 -7 -7 -15 -11 -19 -9 -4 3 -10 -8 -14 -23 -3
-15 -10 -41 -15 -57 -5 -16 -9 -40 -9 -53 0 -13 -7 -26 -15 -29 -12 -5 -13
-10 -4 -20 9 -11 8 -14 -2 -14 -10 -1 -8 -4 4 -11 11 -6 17 -21 16 -42 0 -18
-3 -25 -6 -17 -3 8 -10 26 -16 40 -6 14 -11 28 -11 31 -1 3 -25 26 -54 52 -37
33 -69 51 -110 63 -31 8 -132 38 -223 65 -91 27 -172 49 -180 49 -15 0 -146
-127 -138 -133 2 -2 85 -25 184 -50 264 -68 285 -76 319 -125 22 -31 29 -53
29 -85 0 -52 -22 -137 -35 -137 -5 0 -8 -6 -6 -12 1 -7 -4 -24 -11 -37 -8 -14
-11 -41 -8 -67 4 -41 -5 -59 -16 -31 -3 6 -6 -1 -6 -18 -1 -23 -4 -27 -11 -15
-7 11 -10 7 -10 -17 0 -59 -45 -95 -162 -131 -104 -32 -201 -42 -213 -22 -5 8
-11 8 -20 0 -20 -16 -41 43 -27 75 15 33 53 55 176 101 l104 38 5 61 c4 33 9
81 13 106 l6 45 -111 33 c-79 23 -122 31 -149 27 -20 -4 -87 -9 -148 -13 -104
-5 -114 -4 -142 16 -32 23 -90 28 -123 11 -25 -14 -25 -64 1 -115 l20 -39 -30
-78 c-16 -42 -48 -132 -70 -200 -76 -231 -216 -478 -340 -598 -77 -75 -206
-145 -330 -179 -93 -26 -127 -27 -134 -3 -2 9 -12 84 -22 165 l-18 148 38 77
c131 267 513 974 644 1191 154 257 275 442 317 485 46 47 121 91 182 105 91
22 185 13 320 -29z m4559 -598 c110 -56 238 -130 386 -225 105 -67 127 -86
132 -110 3 -16 6 -241 6 -499 l0 -470 -151 -151 c-156 -156 -265 -280 -334
-380 l-40 -57 -89 0 -88 0 7 28 c10 43 72 195 141 346 35 77 62 141 60 144 -7
6 -148 -67 -197 -104 -86 -63 -119 -114 -194 -304 l-42 -105 -384 0 -384 0 -3
173 c-1 94 1 172 6 172 4 0 20 -13 35 -28 42 -44 111 -75 158 -70 22 2 39 -1
39 -7 0 -5 6 -1 12 10 6 11 19 29 28 40 56 63 409 763 540 1070 72 167 190
470 190 486 0 4 9 28 20 53 22 53 16 53 146 -12z m-4019 -319 c-2 -16 -4 -5
-4 22 0 28 2 40 4 28 2 -13 2 -35 0 -50z m-872 -113 c-3 -5 -12 -10 -18 -10
-7 0 -6 4 3 10 19 12 23 12 15 0z m110 -40 c3 -6 -1 -7 -9 -4 -18 7 -21 14 -7
14 6 0 13 -4 16 -10z m45 -10 c-8 -5 -19 -10 -25 -10 -5 0 -3 5 5 10 8 5 20
10 25 10 6 0 3 -5 -5 -10z m1693 -192 c-18 -68 -43 -159 -55 -203 -12 -44 -28
-84 -35 -90 -7 -6 -14 -38 -16 -75 l-3 -65 -2 74 c-2 61 -7 82 -32 125 -46 81
-120 168 -151 180 -16 5 -29 14 -29 18 0 4 19 17 43 30 50 26 287 125 303 127
7 1 -2 -47 -23 -121z m-1266 -30 c-3 -7 -5 -2 -5 12 0 14 2 19 5 13 2 -7 2
-19 0 -25z m457 -433 c-53 -184 -101 -413 -126 -592 l-23 -163 -512 0 c-282 0
-513 1 -513 3 0 10 44 113 56 133 9 13 56 46 104 74 106 61 166 113 245 213
l59 76 27 -47 c36 -63 114 -135 172 -157 101 -38 244 1 325 89 59 64 85 122
142 317 56 188 58 195 70 182 5 -4 -7 -62 -26 -128z m341 70 c20 -68 51 -119
102 -165 l48 -45 3 -307 3 -308 -226 0 -225 0 5 38 c3 20 10 73 16 117 28 213
104 575 136 658 11 26 21 37 37 37 11 0 28 5 36 10 29 19 52 7 65 -35z m1861
-37 c43 -68 73 -140 80 -189 5 -36 17 -59 58 -107 29 -34 69 -76 89 -93 l37
-32 0 -183 0 -184 -211 0 -212 0 6 83 c3 45 12 174 18 287 l12 205 -28 97
c-15 54 -25 105 -22 113 4 8 19 17 34 20 15 3 42 10 58 14 49 14 54 13 81 -31z
m-4919 -505 c-3 -10 -5 -2 -5 17 0 19 2 27 5 18 2 -10 2 -26 0 -35z m7093
-138 l0 -145 -135 0 c-74 0 -135 4 -135 8 0 18 246 282 262 282 5 0 8 -65 8
-145z m-7083 53 c-3 -7 -5 -2 -5 12 0 14 2 19 5 13 2 -7 2 -19 0 -25z m10 -60
c-3 -7 -5 -2 -5 12 0 14 2 19 5 13 2 -7 2 -19 0 -25z m10 -80 c-3 -7 -5 -2 -5
12 0 14 2 19 5 13 2 -7 2 -19 0 -25z m1283 -28 c0 -27 -3 -30 -32 -30 l-32 0
29 30 c16 17 30 30 32 30 2 0 3 -13 3 -30z"/>
<path d="M4826 6219 c-78 -32 -410 -133 -536 -164 -63 -16 -119 -32 -124 -36
-4 -4 6 -28 23 -52 45 -66 38 -68 -23 -8 -46 45 -58 53 -80 47 -14 -3 -26 -11
-26 -17 0 -6 30 -42 67 -81 51 -52 64 -71 54 -77 -28 -18 22 -114 93 -180 14
-14 26 -31 26 -38 0 -7 12 -18 27 -24 59 -22 197 -49 253 -49 90 0 111 35 69
115 l-21 40 28 -26 c71 -65 155 -56 193 20 12 23 21 60 21 86 l0 45 58 2 c177
4 428 2 418 -4 -6 -5 -2 -8 12 -8 12 0 22 5 22 11 0 5 4 8 9 4 5 -3 37 21 70
53 97 92 99 89 -144 205 -224 108 -351 157 -405 156 -19 0 -57 -9 -84 -20z
m-46 -283 c0 -11 -19 -15 -25 -6 -3 5 1 10 9 10 9 0 16 -2 16 -4z m-74 -18
c-21 -12 -188 -48 -221 -47 -33 1 0 11 115 35 127 26 130 26 106 12z"/>
<path d="M5841 4727 c-13 -21 -12 -21 5 -5 10 10 16 20 13 22 -3 3 -11 -5 -18
-17z"/>
<path d="M5785 4610 c-3 -5 1 -10 10 -10 9 0 13 5 10 10 -3 6 -8 10 -10 10 -2
0 -7 -4 -10 -10z"/>
<path d="M1741 4930 c0 -8 4 -22 9 -30 12 -18 12 -2 0 25 -6 13 -9 15 -9 5z"/>
<path d="M1761 4814 c0 -11 3 -14 6 -6 3 7 2 16 -1 19 -3 4 -6 -2 -5 -13z"/>
<path d="M1766 4737 c3 -10 9 -15 12 -12 3 3 0 11 -7 18 -10 9 -11 8 -5 -6z"/>
<path d="M1766 4652 c-2 -4 2 -16 10 -27 13 -18 14 -18 14 8 0 25 -13 36 -24
19z"/>
<path d="M1842 4225 c0 -16 2 -22 5 -12 2 9 2 23 0 30 -3 6 -5 -1 -5 -18z"/>
<path d="M1851 4154 c0 -11 3 -14 6 -6 3 7 2 16 -1 19 -3 4 -6 -2 -5 -13z"/>
<path d="M1857 3980 c3 -11 9 -20 14 -20 4 0 10 -12 12 -27 l4 -28 2 28 c1 30
-14 67 -28 67 -5 0 -7 -9 -4 -20z"/>
<path d="M1861 3914 c0 -11 3 -14 6 -6 3 7 2 16 -1 19 -3 4 -6 -2 -5 -13z"/>
<path d="M1885 3883 c-9 -21 -14 -123 -6 -138 3 -5 6 -29 7 -53 2 -49 10 -63
25 -42 8 11 9 5 7 -22 -2 -21 0 -38 5 -38 5 0 6 19 3 43 -12 82 -13 92 -15 92
-1 0 -4 38 -6 84 -5 91 -8 102 -20 74z m15 -100 c0 -24 -3 -33 -9 -25 -7 12
-4 62 5 62 2 0 4 -17 4 -37z"/>
<path d="M1926 3543 c-4 -9 -3 -20 2 -25 4 -4 9 4 10 17 2 29 -3 32 -12 8z"/>
<path d="M1942 3480 c0 -14 2 -19 5 -12 2 6 2 18 0 25 -3 6 -5 1 -5 -13z"/>
<path d="M1952 3400 c0 -19 2 -27 5 -17 2 9 2 25 0 35 -3 9 -5 1 -5 -18z"/>
<path d="M1956 3255 c-3 -8 -1 -15 4 -15 5 0 11 -15 13 -32 3 -25 4 -22 5 15
2 45 -10 63 -22 32z"/>
<path d="M1996 3043 c-6 -14 -5 -15 5 -6 7 7 10 15 7 18 -3 3 -9 -2 -12 -12z"/>
<path d="M2050 2611 c0 -5 5 -13 10 -16 6 -3 10 -2 10 4 0 5 -4 13 -10 16 -5
3 -10 2 -10 -4z"/>
<path d="M2071 2514 c0 -11 3 -14 6 -6 3 7 2 16 -1 19 -3 4 -6 -2 -5 -13z"/>
<path d="M2076 2481 c-4 -7 -5 -15 -2 -18 9 -9 19 4 14 18 -4 11 -6 11 -12 0z"/>
<path d="M2108 2175 c-3 -14 -1 -28 4 -31 5 -3 7 -13 4 -21 -3 -8 1 -21 9 -29
13 -14 15 -13 15 10 0 14 -5 28 -11 31 -6 4 -7 19 -4 36 4 16 2 29 -3 29 -5 0
-12 -11 -14 -25z"/>
<path d="M7766 1554 c-9 -23 -2 -28 13 -10 7 8 8 17 3 20 -6 3 -13 -1 -16 -10z"/>
</g>
</svg>
